<svg width="72" height="56" viewBox="0 0 72 56" fill="none" xmlns="http://www.w3.org/2000/svg">
<path d="M41.4999 12C41.0857 12 40.7499 12.3358 40.7499 12.75V24.7247L35.7436 26.5452C35.4015 26.6696 35.1982 27.0216 35.2613 27.3801C35.3245 27.7386 35.6359 28 35.9999 28H45.2499C45.6642 28 45.9999 27.6642 45.9999 27.25V12.75C45.9999 12.3358 45.6642 12 45.2499 12H41.4999Z" fill="#10A6A6"/>
<path d="M42.25 10.75C42.25 10.5053 42.1307 10.2761 41.9303 10.1357C41.7299 9.99534 41.4736 9.96155 41.2437 10.0452L35.8679 12H26.75C26.3358 12 26 12.3358 26 12.75V27.25C26 27.6642 26.3358 28 26.75 28H36C36.1066 28 36.2079 27.9778 36.2997 27.9377L41.784 25.6942C42.0658 25.5789 42.25 25.3045 42.25 25V10.75Z" fill="#25B9B9"/>
<path d="M32.2681 17.25C32.2681 16.9598 32.1007 16.6956 31.8382 16.5718C31.5758 16.4479 31.2654 16.4865 31.0414 16.671L29.5232 17.921C29.2035 18.1843 29.1577 18.657 29.421 18.9767C29.6843 19.2965 30.1569 19.3423 30.4767 19.079L30.7681 18.8391V22H29.9999C29.5857 22 29.2499 22.3358 29.2499 22.75C29.2499 23.1642 29.5857 23.5 29.9999 23.5L31.5181 23.5L32.9999 23.5C33.4142 23.5 33.7499 23.1642 33.7499 22.75C33.7499 22.3358 33.4142 22 32.9999 22H32.2681V17.25Z" fill="white"/>
<path d="M29.9843 45.935V35.804H28.6093V39.676H27.7623V35.969H26.4093V45.484H27.7623V40.842H28.6093V45.935H29.9843ZM25.5733 36.849H21.5803V43.416H25.5733V36.849ZM24.2313 42.283H22.9333V37.993H24.2313V42.283ZM39.8834 45.946V35.815H38.4314V39.698H36.4734V40.875H38.4314V45.946H39.8834ZM36.5394 36.86H31.7764V38.015H35.0654C34.8564 40.215 33.8224 41.81 31.2924 43.075L32.0624 44.197C35.5494 42.437 36.5394 39.918 36.5394 36.86ZM48.4846 43.141H49.9476V35.815H48.4846V43.141ZM47.1096 41.887L47.8466 40.776C46.2186 40.248 45.4706 38.983 45.4706 37.806V37.685H47.4726V36.541H41.9616V37.685H43.9966V37.806C43.9966 39.071 43.2486 40.402 41.5766 40.93L42.3136 42.063C43.5016 41.678 44.3046 40.919 44.7556 39.907C45.2286 40.831 45.9656 41.535 47.1096 41.887ZM50.2006 45.77V44.615H44.6566V42.481H43.2046V45.77H50.2006Z" fill="#25B9B9"/>
</svg>
