<svg width="72" height="56" viewBox="0 0 72 56" fill="none" xmlns="http://www.w3.org/2000/svg">
<path d="M28 17.25C26.4812 17.25 25.25 18.4812 25.25 20C25.25 21.5188 26.4812 22.75 28 22.75C29.5188 22.75 30.75 21.5188 30.75 20C30.75 18.4812 29.5188 17.25 28 17.25Z" fill="#25B9B9"/>
<path d="M36 17.25C34.4812 17.25 33.25 18.4812 33.25 20C33.25 21.5188 34.4812 22.75 36 22.75C37.5188 22.75 38.75 21.5188 38.75 20C38.75 18.4812 37.5188 17.25 36 17.25Z" fill="#25B9B9"/>
<path d="M44 17.25C42.4812 17.25 41.25 18.4812 41.25 20C41.25 21.5188 42.4812 22.75 44 22.75C45.5188 22.75 46.75 21.5188 46.75 20C46.75 18.4812 45.5188 17.25 44 17.25Z" fill="#25B9B9"/>
<path d="M29.7973 45.979V35.815H28.3453V39.313H25.8703V40.479H28.3453V45.979H29.7973ZM23.2193 42.338V37.872H26.3543V36.717H21.7673V43.526H22.5923C24.4403 43.526 25.6393 43.493 27.0143 43.229L26.8713 42.052C25.7273 42.261 24.6603 42.338 23.2193 42.338ZM40.5874 44.769V43.592H36.7154V41.733H39.5864V36.442H38.1564V38.015H33.8224V36.442H32.3814V41.733H35.2634V43.592H31.4134V44.769H40.5874ZM38.1564 40.578H33.8224V39.159H38.1564V40.578ZM49.9696 45.935V35.804H48.5066V45.935H49.9696ZM46.9556 36.86H42.0936V38.015H45.4706C45.2616 40.259 44.1396 41.854 41.5546 43.086L42.3136 44.23C45.9106 42.503 46.9556 39.951 46.9556 36.86Z" fill="#25B9B9"/>
</svg>
