<svg width="72" height="56" viewBox="0 0 72 56" fill="none" xmlns="http://www.w3.org/2000/svg">
<path d="M35.5785 30.1203C35.5785 30.1203 35.5786 30.1204 36 29.5C36.4214 30.1204 36.4215 30.1203 36.4215 30.1203C36.1672 30.2931 35.8328 30.2931 35.5785 30.1203Z" fill="#B1B6BC"/>
<path fill-rule="evenodd" clip-rule="evenodd" d="M36 15C33.9289 15 32.25 16.6789 32.25 18.75C32.25 20.8211 33.9289 22.5 36 22.5C38.0711 22.5 39.75 20.8211 39.75 18.75C39.75 16.6789 38.0711 15 36 15ZM33.75 18.75C33.75 17.5074 34.7574 16.5 36 16.5C37.2426 16.5 38.25 17.5074 38.25 18.75C38.25 19.9926 37.2426 21 36 21C34.7574 21 33.75 19.9926 33.75 18.75Z" fill="#B1B6BC"/>
<path fill-rule="evenodd" clip-rule="evenodd" d="M36.4215 30.1203L36.4224 30.1198L36.4331 30.1124L36.4654 30.0904C36.4936 30.0711 36.5348 30.0428 36.5876 30.0063C36.6932 29.9334 36.8454 29.8276 37.033 29.6954C37.408 29.4312 37.9256 29.0605 38.496 28.6349C39.6242 27.7931 41.0036 26.7035 41.8797 25.7895C43.6178 23.9762 45 21.6606 45 18.75C45 13.7794 40.9706 9.75 36 9.75C31.0294 9.75 27 13.7794 27 18.75C27 21.6606 28.3822 23.9762 30.1203 25.7895C30.9964 26.7035 32.3758 27.7931 33.504 28.6349C34.0744 29.0605 34.592 29.4312 34.967 29.6954C35.1546 29.8276 35.3068 29.9334 35.4124 30.0063C35.4652 30.0428 35.5064 30.0711 35.5346 30.0904L35.5669 30.1124L35.5785 30.1203L36 29.5L36.4215 30.1203ZM28.5 18.75C28.5 14.6079 31.8579 11.25 36 11.25C40.1421 11.25 43.5 14.6079 43.5 18.75C43.5 21.1429 42.3742 23.106 40.7968 24.7516C40.0151 25.5671 38.7253 26.5922 37.5989 27.4327C37.042 27.8483 36.5358 28.2107 36.169 28.4693C36.1087 28.5117 36.0523 28.5513 36 28.5879C35.9477 28.5513 35.8913 28.5117 35.831 28.4693C35.4642 28.2107 34.958 27.8483 34.4011 27.4327C33.2747 26.5922 31.9849 25.5671 31.2032 24.7516C29.6258 23.106 28.5 21.1429 28.5 18.75Z" fill="#B1B6BC"/>
<path d="M34.5379 45.814V35.958H33.6359V45.814H34.5379ZM29.9839 38.961V37.707H32.3049V36.959H26.7939V37.707H29.0819V38.961C29.0819 40.666 27.8829 42.514 26.4639 43.196L26.9919 43.922C28.0919 43.372 29.0929 42.096 29.5329 40.666C30.0059 42.019 30.9739 43.152 32.1179 43.68L32.6239 42.954C31.1719 42.338 29.9839 40.633 29.9839 38.961ZM45.537 44.571V43.823H41.5V41.293H44.503V40.567H38.618V37.476H44.404V36.739H37.716V41.293H40.587V43.823H36.572V44.571H45.537Z" fill="#B1B6BC"/>
</svg>
