<svg width="72" height="56" viewBox="0 0 72 56" fill="none" xmlns="http://www.w3.org/2000/svg">
<path d="M31.8889 11C28.5613 11 26 13.7724 26 17.1137C26 18.2854 26.3154 19.3883 26.868 20.3283C27.2181 21.022 27.9425 21.9109 28.6825 22.7492C28.6901 22.7578 28.6978 22.7662 28.7058 22.7744C30.146 24.2629 31.689 25.5647 33.2581 26.8885C34.0035 27.5173 34.7547 28.1511 35.5036 28.8123C35.7872 29.0626 36.2129 29.0626 36.4964 28.8122C37.2297 28.1647 37.9679 27.5481 38.7019 26.935C40.3298 25.5754 41.9377 24.2325 43.4275 22.6059L43.4393 22.5927C44.1832 21.7409 44.9225 20.8226 45.257 20.1053C45.732 19.2156 46 18.1938 46 17.1137C46 13.7724 43.4387 11 40.1111 11C38.4997 11 37.0518 11.6907 36 12.7485C34.9482 11.6907 33.5003 11 31.8889 11Z" fill="#25B9B9"/>
<path d="M39.006 15.5C39.006 15.0858 39.3418 14.75 39.756 14.75H45.256C45.6702 14.75 46.006 15.0858 46.006 15.5C46.006 15.9142 45.6702 16.25 45.256 16.25H39.756C39.3418 16.25 39.006 15.9142 39.006 15.5Z" fill="white"/>
<path d="M39.006 18.5C39.006 18.0858 39.3418 17.75 39.756 17.75H45.256C45.6702 17.75 46.006 18.0858 46.006 18.5C46.006 18.9142 45.6702 19.25 45.256 19.25H39.756C39.3418 19.25 39.006 18.9142 39.006 18.5Z" fill="white"/>
<path d="M39.756 20.75C39.3418 20.75 39.006 21.0858 39.006 21.5C39.006 21.9142 39.3418 22.25 39.756 22.25H45.256C45.6702 22.25 46.006 21.9142 46.006 21.5C46.006 21.0858 45.6702 20.75 45.256 20.75H39.756Z" fill="white"/>
<path d="M29.9403 41.689V35.815H28.4773V41.689H29.9403ZM27.5203 41.469L28.2683 40.435C27.1683 39.841 26.8273 38.719 26.7943 37.575H27.7843V36.42H24.8803V37.575H25.4193C25.3863 38.411 25.2433 39.247 24.6713 39.951C24.1103 39.247 23.9563 38.378 23.9233 37.575H24.4843V36.42H21.4813V37.575H22.5703C22.5373 38.697 22.1743 39.852 21.0963 40.435L21.8443 41.469C22.5483 41.084 22.9993 40.49 23.2523 39.742C23.5053 40.49 23.9233 41.161 24.6713 41.568C25.4193 41.161 25.8483 40.512 26.1013 39.72C26.3543 40.468 26.8053 41.084 27.5203 41.469ZM29.9403 42.162H22.9553V45.825H29.9403V42.162ZM28.5103 44.67H24.3743V43.317H28.5103V44.67ZM40.5654 41.898V40.743H36.7044V39.797H39.4104V36.211H32.5354V39.797H35.2524V40.743H31.4134V41.898H40.5654ZM37.9804 38.653H33.9654V37.344H37.9804V38.653ZM39.4654 42.624H32.4254V43.779H38.0134V45.957H39.4654V42.624ZM50.7066 42.393V41.238H46.8456V40.512H49.7936V39.412H44.1066V38.752H49.5846V36.013H42.6546V37.113H48.1546V37.729H42.6766V40.512H45.3936V41.238H41.5326V42.393H50.7066ZM49.6506 42.965H42.5446V44.109H48.1986V45.913H49.6506V42.965Z" fill="#25B9B9"/>
</svg>
