<svg width="72" height="56" viewBox="0 0 72 56" fill="none" xmlns="http://www.w3.org/2000/svg">
<path d="M33.75 21.25C33.75 20.0074 34.7574 19 36 19C37.2426 19 38.25 20.0074 38.25 21.25C38.25 22.4926 37.2426 23.5 36 23.5C34.7574 23.5 33.75 22.4926 33.75 21.25Z" fill="#25B9B9"/>
<path fill-rule="evenodd" clip-rule="evenodd" d="M36.4831 10.1763C36.204 9.94123 35.7961 9.94123 35.5169 10.1763L26.0169 18.1763C25.7001 18.4431 25.6595 18.9163 25.9263 19.2331C26.1931 19.5499 26.6663 19.5905 26.9831 19.3237L28 18.4674V29.25C28 29.6642 28.3358 30 28.75 30H43.25C43.6642 30 44 29.6642 44 29.25V18.4673L45.0169 19.3237C45.3338 19.5905 45.8069 19.5499 46.0737 19.2331C46.3405 18.9163 46.3 18.4431 45.9831 18.1763L36.4831 10.1763ZM36 17.5C33.9289 17.5 32.25 19.1789 32.25 21.25C32.25 23.3211 33.9289 25 36 25C38.0711 25 39.75 23.3211 39.75 21.25C39.75 19.1789 38.0711 17.5 36 17.5Z" fill="#25B9B9"/>
<path d="M31.8424 37.619H40.0924V36.53H36.7154V35.738H35.2634V36.53H31.8424V37.619ZM40.5764 42.36V41.238H36.7154V40.732C38.4424 40.633 39.3884 40.16 39.3884 39.313C39.3884 38.345 38.2444 37.872 35.9894 37.872C33.7344 37.872 32.6014 38.356 32.6014 39.313C32.6014 40.16 33.5364 40.633 35.2634 40.732V41.238H31.4024V42.36H40.5764ZM34.1524 39.313C34.1524 38.972 34.7024 38.851 35.9894 38.851C37.2764 38.851 37.8264 38.972 37.8264 39.313C37.8264 39.654 37.2764 39.786 35.9894 39.786C34.7024 39.786 34.1524 39.654 34.1524 39.313ZM39.4764 42.888H32.4804V45.825H39.4764V42.888ZM38.0464 44.758H33.8994V43.955H38.0464V44.758Z" fill="#25B9B9"/>
</svg>
