<svg width="72" height="56" viewBox="0 0 72 56" fill="none" xmlns="http://www.w3.org/2000/svg">
<path fill-rule="evenodd" clip-rule="evenodd" d="M28.75 17.25C27.2312 17.25 26 18.4812 26 20C26 21.5188 27.2312 22.75 28.75 22.75C30.2688 22.75 31.5 21.5188 31.5 20C31.5 18.4812 30.2688 17.25 28.75 17.25ZM27.5 20C27.5 19.3096 28.0596 18.75 28.75 18.75C29.4404 18.75 30 19.3096 30 20C30 20.6904 29.4404 21.25 28.75 21.25C28.0596 21.25 27.5 20.6904 27.5 20Z" fill="#B1B6BC"/>
<path fill-rule="evenodd" clip-rule="evenodd" d="M33.25 20C33.25 18.4812 34.4812 17.25 36 17.25C37.5188 17.25 38.75 18.4812 38.75 20C38.75 21.5188 37.5188 22.75 36 22.75C34.4812 22.75 33.25 21.5188 33.25 20ZM36 18.75C35.3096 18.75 34.75 19.3096 34.75 20C34.75 20.6904 35.3096 21.25 36 21.25C36.6904 21.25 37.25 20.6904 37.25 20C37.25 19.3096 36.6904 18.75 36 18.75Z" fill="#B1B6BC"/>
<path fill-rule="evenodd" clip-rule="evenodd" d="M40.5 20C40.5 18.4812 41.7312 17.25 43.25 17.25C44.7688 17.25 46 18.4812 46 20C46 21.5188 44.7688 22.75 43.25 22.75C41.7312 22.75 40.5 21.5188 40.5 20ZM43.25 18.75C42.5596 18.75 42 19.3096 42 20C42 20.6904 42.5596 21.25 43.25 21.25C43.9404 21.25 44.5 20.6904 44.5 20C44.5 19.3096 43.9404 18.75 43.25 18.75Z" fill="#B1B6BC"/>
<path d="M29.5333 45.836V35.947H28.6313V39.522H25.8043V40.27H28.6313V45.836H29.5333ZM22.8013 42.635V37.63H26.3873V36.882H21.8993V43.394H22.6583C24.5393 43.394 25.7053 43.328 27.1463 43.064L27.0363 42.316C25.7163 42.58 24.5503 42.635 22.8013 42.635ZM40.4664 44.549V43.812H36.4404V41.689H39.3884V36.651H38.5084V38.411H33.4704V36.651H32.5794V41.689H35.5274V43.812H31.5234V44.549H40.4664ZM38.5084 40.963H33.4704V39.148H38.5084V40.963ZM49.7386 45.814V35.947H48.8366V45.814H49.7386ZM46.8456 37.014H42.2256V37.74H45.9326C45.7456 40.083 44.4256 41.975 41.7746 43.24L42.2586 43.977C45.5476 42.36 46.8456 39.863 46.8456 37.014Z" fill="#B1B6BC"/>
</svg>
