<svg width="72" height="56" viewBox="0 0 72 56" fill="none" xmlns="http://www.w3.org/2000/svg">
<path fill-rule="evenodd" clip-rule="evenodd" d="M36 17.5C33.929 17.5 32.25 19.1789 32.25 21.25C32.25 23.3211 33.929 25 36 25C38.0711 25 39.75 23.3211 39.75 21.25C39.75 19.1789 38.0711 17.5 36 17.5ZM33.75 21.25C33.75 20.0074 34.7574 19 36 19C37.2427 19 38.25 20.0074 38.25 21.25C38.25 22.4926 37.2427 23.5 36 23.5C34.7574 23.5 33.75 22.4926 33.75 21.25Z" fill="#B1B6BC"/>
<path fill-rule="evenodd" clip-rule="evenodd" d="M35.5169 10.1763C35.7961 9.94123 36.204 9.94123 36.4831 10.1763L45.9831 18.1763C46.3 18.4431 46.3405 18.9163 46.0737 19.2331C45.8069 19.5499 45.3338 19.5905 45.0169 19.3237L44 18.4674V29.25C44 29.6642 43.6642 30 43.25 30H28.75C28.3358 30 28 29.6642 28 29.25V18.4673L26.9831 19.3237C26.6663 19.5905 26.1931 19.5499 25.9263 19.2331C25.6595 18.9163 25.7001 18.4431 26.0169 18.1763L35.5169 10.1763ZM36 11.7305L42.5013 17.2053C42.5005 17.2201 42.5 17.235 42.5 17.25V28.5H29.5V17.25C29.5 17.235 29.4996 17.2201 29.4987 17.2053L36 11.7305Z" fill="#B1B6BC"/>
<path d="M31.9854 37.465H39.9274V36.761H36.4404V35.815H35.5384V36.761H31.9854V37.465ZM40.4334 42.107V41.392H36.4404V40.644C38.2114 40.567 39.1684 40.094 39.1684 39.247C39.1684 38.323 38.0574 37.85 35.9894 37.85C33.9104 37.85 32.7994 38.323 32.7994 39.247C32.7994 40.094 33.7674 40.567 35.5384 40.644V41.392H31.5234V42.107H40.4334ZM33.7454 39.247C33.7454 38.763 34.5264 38.488 35.9894 38.488C37.4084 38.488 38.2114 38.763 38.2114 39.247C38.2114 39.742 37.4084 40.017 35.9894 40.017C34.5264 40.017 33.7454 39.742 33.7454 39.247ZM39.3554 42.877H32.6234V45.682H39.3554V42.877ZM38.4754 45H33.5034V43.559H38.4754V45Z" fill="#B1B6BC"/>
</svg>
