<svg width="72" height="56" viewBox="0 0 72 56" fill="none" xmlns="http://www.w3.org/2000/svg">
<path d="M31.8889 11C28.5613 11 26 13.7724 26 17.1137C26 18.2854 26.3154 19.3883 26.868 20.3283C27.2181 21.022 27.9425 21.9109 28.6825 22.7492C28.6901 22.7578 28.6978 22.7662 28.7058 22.7744C30.146 24.2629 31.689 25.5647 33.2581 26.8885C34.0034 27.5173 34.7548 28.1512 35.5036 28.8123C35.7872 29.0626 36.2129 29.0626 36.4964 28.8122C37.2553 28.1421 38.0033 27.5175 38.7469 26.8966L39.0337 26.657C39.8685 25.9593 40.6974 25.2606 41.5071 24.5175C41.8123 24.2374 41.8326 23.763 41.5526 23.4578C41.2725 23.1526 40.7981 23.1323 40.4929 23.4123C39.7113 24.1296 38.9061 24.8087 38.0718 25.5061L37.7858 25.745C37.2027 26.2318 36.6057 26.7303 36.0005 27.2537C35.3694 26.7056 34.7539 26.1866 34.1521 25.6791C32.6218 24.3887 31.1801 23.173 29.7957 21.7437C29.0366 20.8829 28.4419 20.1274 28.1995 19.637C28.1909 19.6198 28.1818 19.6029 28.1719 19.5863C27.7462 18.8697 27.5 18.0222 27.5 17.1137C27.5 14.5315 29.4574 12.5 31.8889 12.5C33.3042 12.5 34.5844 13.2352 35.3948 14.3425C35.536 14.5355 35.7608 14.6496 36 14.6496C36.2392 14.6496 36.464 14.5355 36.6052 14.3425C37.4157 13.2352 38.6958 12.5 40.1111 12.5C41.1947 12.5 42.1729 12.8983 42.9311 13.5637C43.2425 13.8369 43.7163 13.806 43.9896 13.4947C44.2628 13.1834 44.2319 12.7095 43.9205 12.4363C42.9006 11.5412 41.5744 11 40.1111 11C38.4997 11 37.0518 11.6907 36 12.7485C34.9482 11.6907 33.5003 11 31.8889 11Z" fill="#B1B6BC"/>
<path d="M39.756 14.75C39.3418 14.75 39.006 15.0858 39.006 15.5C39.006 15.9142 39.3418 16.25 39.756 16.25H45.256C45.6702 16.25 46.006 15.9142 46.006 15.5C46.006 15.0858 45.6702 14.75 45.256 14.75H39.756Z" fill="#B1B6BC"/>
<path d="M39.756 17.75C39.3418 17.75 39.006 18.0858 39.006 18.5C39.006 18.9142 39.3418 19.25 39.756 19.25H45.256C45.6702 19.25 46.006 18.9142 46.006 18.5C46.006 18.0858 45.6702 17.75 45.256 17.75H39.756Z" fill="#B1B6BC"/>
<path d="M39.006 21.5C39.006 21.0858 39.3418 20.75 39.756 20.75H45.256C45.6702 20.75 46.006 21.0858 46.006 21.5C46.006 21.9142 45.6702 22.25 45.256 22.25H39.756C39.3418 22.25 39.006 21.9142 39.006 21.5Z" fill="#B1B6BC"/>
<path d="M29.5993 41.722V35.947H28.6973V41.722H29.5993ZM27.6743 41.282L28.1473 40.622C27.0363 40.039 26.5853 38.752 26.5853 37.784V37.366H27.7733V36.629H24.9793V37.366H25.7273V37.784C25.7273 38.565 25.5073 39.676 24.7483 40.38C23.9783 39.61 23.7693 38.532 23.7693 37.784V37.366H24.5063V36.629H21.6903V37.366H22.9113V37.784C22.9113 38.719 22.4603 40.006 21.3493 40.622L21.8223 41.282C22.6143 40.853 23.0653 40.138 23.3403 39.346C23.5603 40.138 23.9563 40.919 24.7483 41.37C25.5403 40.93 25.9363 40.16 26.1563 39.368C26.4313 40.16 26.8823 40.853 27.6743 41.282ZM29.5993 42.261H23.0653V45.682H29.5993V42.261ZM28.7193 44.945H23.9453V42.987H28.7193V44.945ZM40.4444 41.678V40.952H36.4404V39.698H39.3004V36.354H32.6674V39.698H35.5384V40.952H31.5124V41.678H40.4444ZM38.4094 38.983H33.5474V37.069H38.4094V38.983ZM39.3444 42.701H32.5134V43.427H38.4424V45.825H39.3444V42.701ZM50.5856 42.107V41.37H46.5706V40.336H49.6506V39.632H43.6776V38.598H49.4416V36.2H42.7646V36.904H48.5506V37.927H42.7866V40.336H45.6576V41.37H41.6316V42.107H50.5856ZM49.4966 42.866H42.6326V43.603H48.5946V45.726H49.4966V42.866Z" fill="#B1B6BC"/>
</svg>
