<svg width="72" height="56" viewBox="0 0 72 56" fill="none" xmlns="http://www.w3.org/2000/svg">
<path d="M31.8382 16.5717C32.1007 16.6956 32.2681 16.9598 32.2681 17.25V22H33C33.4142 22 33.75 22.3358 33.75 22.75C33.75 23.1642 33.4142 23.5 33 23.5H31.5217L31.5181 23.5L31.5145 23.5H30C29.5858 23.5 29.25 23.1642 29.25 22.75C29.25 22.3358 29.5858 22 30 22H30.7681V18.839L30.4767 19.079C30.157 19.3423 29.6843 19.2965 29.421 18.9767C29.1577 18.6569 29.2035 18.1843 29.5233 17.921L31.0414 16.671C31.2654 16.4865 31.5758 16.4479 31.8382 16.5717Z" fill="#B1B6BC"/>
<path fill-rule="evenodd" clip-rule="evenodd" d="M41.9303 10.1357C42.1307 10.276 42.25 10.5053 42.25 10.75V12H45.25C45.6642 12 46 12.3358 46 12.75V27.25C46 27.6642 45.6642 28 45.25 28H26.75C26.3358 28 26 27.6642 26 27.25V12.75C26 12.3358 26.3358 12 26.75 12H35.8679L41.2437 10.0451C41.4736 9.96152 41.7299 9.99531 41.9303 10.1357ZM39.8142 26.5H44.5V13.5H42.25V25C42.25 25.3045 42.0658 25.5788 41.784 25.6941L39.8142 26.5ZM40.75 24.4965L36.75 26.1328V13.2753L40.75 11.8207V24.4965ZM35.25 13.5V26.5H27.5V13.5H35.25Z" fill="#B1B6BC"/>
<path d="M29.7863 45.803V35.947H28.9283V39.852H27.5973V36.167H26.7503V45.319H27.5973V40.589H28.9283V45.803H29.7863ZM25.5073 37.091H21.7563V43.163H25.5073V37.091ZM24.6713 42.448H22.6033V37.806H24.6713V42.448ZM39.6414 45.814V35.958H38.7394V39.907H36.4294V40.644H38.7394V45.814H39.6414ZM36.4514 37.014H31.9524V37.74H35.5494C35.3734 40.05 34.1634 41.931 31.5124 43.229L32.0074 43.933C35.2964 42.316 36.4514 39.819 36.4514 37.014ZM48.8366 43.174H49.7386V35.958H48.8366V43.174ZM47.2306 41.766L47.6706 41.051C46.2186 40.578 45.1956 39.357 45.1956 38.037V37.498H47.4286V36.772H42.0166V37.498H44.2716V38.037C44.2716 39.456 43.2706 40.721 41.7746 41.249L42.2476 41.953C43.4356 41.524 44.3156 40.666 44.7446 39.522C45.1956 40.578 46.0866 41.37 47.2306 41.766ZM50.0356 45.594V44.857H44.2936V42.492H43.3916V45.594H50.0356Z" fill="#B1B6BC"/>
</svg>
