<svg width="72" height="56" viewBox="0 0 72 56" fill="none" xmlns="http://www.w3.org/2000/svg">
<path d="M33.75 18.75C33.75 17.5074 34.7574 16.5 36 16.5C37.2426 16.5 38.25 17.5074 38.25 18.75C38.25 19.9926 37.2426 21 36 21C34.7574 21 33.75 19.9926 33.75 18.75Z" fill="#25B9B9"/>
<path fill-rule="evenodd" clip-rule="evenodd" d="M36.4215 30.1203C36.1672 30.2931 35.8328 30.2931 35.5785 30.1203L35.5669 30.1124L35.5346 30.0904C35.5064 30.0711 35.4652 30.0428 35.4124 30.0063C35.3068 29.9334 35.1546 29.8276 34.967 29.6954C34.592 29.4312 34.0744 29.0605 33.504 28.6349C32.3758 27.7931 30.9964 26.7035 30.1203 25.7895C28.3822 23.9762 27 21.6606 27 18.75C27 13.7794 31.0294 9.75 36 9.75C40.9706 9.75 45 13.7794 45 18.75C45 21.6606 43.6178 23.9762 41.8797 25.7895C41.0036 26.7035 39.6242 27.7931 38.496 28.6349C37.9256 29.0605 37.408 29.4312 37.033 29.6954C36.8454 29.8276 36.6932 29.9334 36.5876 30.0063C36.5348 30.0428 36.4936 30.0711 36.4654 30.0904L36.4331 30.1124L36.4224 30.1198L36.4215 30.1203ZM35.5785 30.1203C35.5785 30.1203 35.5786 30.1204 36 29.5L35.5785 30.1203ZM36 29.5C36.4214 30.1204 36.4215 30.1203 36.4215 30.1203L36 29.5ZM36 15C33.9289 15 32.25 16.6789 32.25 18.75C32.25 20.8211 33.9289 22.5 36 22.5C38.0711 22.5 39.75 20.8211 39.75 18.75C39.75 16.6789 38.0711 15 36 15Z" fill="#25B9B9"/>
<path d="M34.7469 45.946V35.815H33.2949V45.946H34.7469ZM30.2699 38.543V37.982H32.3599V36.783H26.6839V37.982H28.7959V38.543C28.7959 40.27 27.9819 42.129 26.2769 42.888L27.1019 44.043C28.2899 43.504 29.1039 42.404 29.5549 41.073C30.0059 42.316 30.7979 43.273 31.9859 43.79L32.7779 42.646C31.0839 41.942 30.2699 40.193 30.2699 38.543ZM45.647 44.802V43.614H41.775V41.502H44.668V40.336H39.003V37.674H44.591V36.508H37.54V41.502H40.323V43.614H36.473V44.802H45.647Z" fill="#25B9B9"/>
</svg>
